# xmcd
#
# Track frame offsets:
#	150
#	12737
#	26640
#	39467
#	51107
#	63990
#	78715
#	91602
#	107160
#	119817
#	130270
#	141102
#	153810
#	165915
#	177382
#	189927
#	202857
#	217517
#	232360
#	244927
#	257395
#	267510
#	279970
#
# Disc length: 3877 seconds
#
# Revision: 0
# Processed by: cddbd v1.5.2PL0 Copyright (c) Steve Scherf et al.
# Submitted via: EasyCDDAExtractor 10.1.0.1
#
DISCID=3c0f2317
DTITLE=Elmore James and his Broom Dusters - Early Years 1951-1954
DYEAR=1900
DGENRE=
TTITLE0=Dust My Broom
TTITLE1=Please Find My Baby
TTITLE2=Hand In Hand
TTITLE3=Rock My Baby Right
TTITLE4=Baby What's Wrong
TTITLE5=I Believe
TTITLE6=Sinful Woman
TTITLE7=I Held My Baby Last Night
TTITLE8=Early In The Morning
TTITLE9=Hawaiian Boogie
TTITLE10=Can't Stop Lovin' 
TTITLE11=Make A Little Love
TTITLE12=Make My Dreams Came True
TTITLE13=Strange Kinda Feeling
TTITLE14=Dark And Dreary
TTITLE15=Sho'  Nuff I Do
TTITLE16=1839 Blues
TTITLE17=Sunny Land
TTITLE18=Standing At The Crossroads
TTITLE19=Late Hours At Midnight
TTITLE20=The Way You Treat Me (Mean and Evil)
TTITLE21=Happy Home
TTITLE22=No Love In My Heart
EXTD=
EXTT0=
EXTT1=
EXTT2=
EXTT3=
EXTT4=
EXTT5=
EXTT6=
EXTT7=
EXTT8=
EXTT9=
EXTT10=
EXTT11=
EXTT12=
EXTT13=
EXTT14=
EXTT15=
EXTT16=
EXTT17=
EXTT18=
EXTT19=
EXTT20=
EXTT21=
EXTT22=
PLAYORDER=
